<svg width="241" height="51" viewBox="0 0 241 51" fill="none" xmlns="http://www.w3.org/2000/svg">
<g opacity="0.6">
<path d="M11.6211 14.3916H5.41211L5.37891 10.9717H10.5918C11.5104 10.9717 12.263 10.8555 12.8496 10.623C13.4362 10.3796 13.8734 10.0309 14.1611 9.57715C14.46 9.1123 14.6094 8.54785 14.6094 7.88379C14.6094 7.13119 14.4655 6.52246 14.1777 6.05762C13.901 5.59277 13.4639 5.25521 12.8662 5.04492C12.2796 4.83464 11.5215 4.72949 10.5918 4.72949H7.13867V25H2.1582V0.828125H10.5918C11.9974 0.828125 13.2536 0.960938 14.3604 1.22656C15.4782 1.49219 16.4245 1.89616 17.1992 2.43848C17.974 2.98079 18.5661 3.66699 18.9756 4.49707C19.3851 5.31608 19.5898 6.29004 19.5898 7.41895C19.5898 8.41504 19.363 9.33366 18.9092 10.1748C18.4665 11.016 17.7637 11.7021 16.8008 12.2334C15.849 12.7646 14.6038 13.0579 13.0654 13.1133L11.6211 14.3916ZM11.4053 25H4.05078L5.99316 21.1152H11.4053C12.2796 21.1152 12.9935 20.9769 13.5469 20.7002C14.1003 20.4124 14.5098 20.0251 14.7754 19.5381C15.041 19.0511 15.1738 18.4922 15.1738 17.8613C15.1738 17.153 15.0521 16.5387 14.8086 16.0186C14.5762 15.4984 14.1999 15.0999 13.6797 14.8232C13.1595 14.5355 12.4733 14.3916 11.6211 14.3916H6.82324L6.85645 10.9717H12.833L13.9785 12.3164C15.4505 12.2943 16.6348 12.5544 17.5312 13.0967C18.4388 13.6279 19.0973 14.3197 19.5068 15.1719C19.9274 16.0241 20.1377 16.9372 20.1377 17.9111C20.1377 19.4606 19.8001 20.7666 19.125 21.8291C18.4499 22.8805 17.4593 23.6719 16.1533 24.2031C14.8584 24.7344 13.2757 25 11.4053 25Z" fill="black"/>
<path d="M26.8779 12.3662H32.0908C33.7288 12.3662 35.1234 12.6374 36.2744 13.1797C37.4365 13.7109 38.3219 14.4525 38.9307 15.4043C39.5505 16.3561 39.8604 17.4574 39.8604 18.708C39.8604 19.6156 39.6833 20.4567 39.3291 21.2314C38.986 21.9951 38.4824 22.6592 37.8184 23.2236C37.1543 23.7881 36.3408 24.2253 35.3779 24.5352C34.415 24.8451 33.3193 25 32.0908 25H23.8896V7.03711H28.6875V21.2812H32.0908C32.8102 21.2812 33.3857 21.165 33.8174 20.9326C34.2601 20.6891 34.5811 20.3737 34.7803 19.9863C34.9906 19.599 35.0957 19.1784 35.0957 18.7246C35.0957 18.2487 34.9906 17.8171 34.7803 17.4297C34.5811 17.0312 34.2601 16.7103 33.8174 16.4668C33.3857 16.2233 32.8102 16.1016 32.0908 16.1016H26.8779V12.3662ZM47.5303 7.03711V25H42.749V7.03711H47.5303Z" fill="black"/>
<path d="M60.6787 17.4961H55.0508L55.0176 14.3584H59.666C60.2858 14.3584 60.7894 14.2975 61.1768 14.1758C61.5641 14.043 61.8464 13.8493 62.0234 13.5947C62.2116 13.3291 62.3057 13.0081 62.3057 12.6318C62.3057 12.2998 62.2448 12.0176 62.123 11.7852C62.0124 11.5417 61.8408 11.3424 61.6084 11.1875C61.376 11.0326 61.0827 10.9219 60.7285 10.8555C60.3854 10.778 59.9814 10.7393 59.5166 10.7393H56.8271V25H52.0459V7.03711H59.5166C60.6898 7.03711 61.7412 7.14225 62.6709 7.35254C63.6006 7.55176 64.3919 7.85612 65.0449 8.26562C65.709 8.67513 66.2126 9.19531 66.5557 9.82617C66.9098 10.446 67.0869 11.182 67.0869 12.0342C67.0869 12.5876 66.9596 13.1077 66.7051 13.5947C66.4616 14.0817 66.0964 14.5133 65.6094 14.8896C65.1224 15.266 64.5192 15.5758 63.7998 15.8193C63.0915 16.0518 62.2725 16.1956 61.3428 16.251L60.6787 17.4961ZM60.6787 25H53.8721L55.5156 21.2979H60.6787C61.2653 21.2979 61.7467 21.2259 62.123 21.082C62.4993 20.9382 62.776 20.7279 62.9531 20.4512C63.1413 20.1634 63.2354 19.8203 63.2354 19.4219C63.2354 19.0345 63.1523 18.6969 62.9863 18.4092C62.8203 18.1214 62.5492 17.9001 62.1729 17.7451C61.8076 17.5791 61.3096 17.4961 60.6787 17.4961H56.2129L56.2461 14.3584H61.3262L62.4883 15.6201C63.75 15.6976 64.7904 15.9355 65.6094 16.334C66.4284 16.7324 67.0316 17.2415 67.4189 17.8613C67.8174 18.4701 68.0166 19.1396 68.0166 19.8701C68.0166 20.7223 67.8561 21.4694 67.5352 22.1113C67.2142 22.7533 66.7383 23.29 66.1074 23.7217C65.4876 24.1423 64.724 24.4632 63.8164 24.6846C62.9089 24.8949 61.863 25 60.6787 25Z" fill="black"/>
<path d="M70.1914 16.2012V15.8525C70.1914 14.5355 70.3796 13.3236 70.7559 12.2168C71.1322 11.099 71.68 10.1305 72.3994 9.31152C73.1188 8.49251 74.0042 7.85612 75.0557 7.40234C76.1071 6.9375 77.3135 6.70508 78.6748 6.70508C80.0361 6.70508 81.248 6.9375 82.3105 7.40234C83.373 7.85612 84.264 8.49251 84.9834 9.31152C85.7139 10.1305 86.2673 11.099 86.6436 12.2168C87.0199 13.3236 87.208 14.5355 87.208 15.8525V16.2012C87.208 17.5072 87.0199 18.7191 86.6436 19.8369C86.2673 20.9437 85.7139 21.9121 84.9834 22.7422C84.264 23.5612 83.3786 24.1976 82.3271 24.6514C81.2757 25.1051 80.0693 25.332 78.708 25.332C77.3467 25.332 76.1348 25.1051 75.0723 24.6514C74.0208 24.1976 73.1299 23.5612 72.3994 22.7422C71.68 21.9121 71.1322 20.9437 70.7559 19.8369C70.3796 18.7191 70.1914 17.5072 70.1914 16.2012ZM74.9727 15.8525V16.2012C74.9727 16.9538 75.0391 17.6566 75.1719 18.3096C75.3047 18.9626 75.515 19.5381 75.8027 20.0361C76.1016 20.5231 76.4889 20.9049 76.9648 21.1816C77.4408 21.4583 78.0218 21.5967 78.708 21.5967C79.3721 21.5967 79.9421 21.4583 80.418 21.1816C80.8939 20.9049 81.2757 20.5231 81.5635 20.0361C81.8512 19.5381 82.0615 18.9626 82.1943 18.3096C82.3382 17.6566 82.4102 16.9538 82.4102 16.2012V15.8525C82.4102 15.1221 82.3382 14.4359 82.1943 13.7939C82.0615 13.141 81.8457 12.5654 81.5469 12.0674C81.2591 11.5583 80.8773 11.1598 80.4014 10.8721C79.9255 10.5843 79.3499 10.4404 78.6748 10.4404C77.9997 10.4404 77.4242 10.5843 76.9482 10.8721C76.4834 11.1598 76.1016 11.5583 75.8027 12.0674C75.515 12.5654 75.3047 13.141 75.1719 13.7939C75.0391 14.4359 74.9727 15.1221 74.9727 15.8525Z" fill="black"/>
<path d="M98.1484 16.4336H94.5957V14.292H97.1357C97.7334 14.292 98.2093 14.209 98.5635 14.043C98.9287 13.877 99.1888 13.6445 99.3438 13.3457C99.5098 13.0358 99.5928 12.6872 99.5928 12.2998C99.5928 11.9567 99.5208 11.6302 99.377 11.3203C99.2441 10.9993 99.0006 10.7393 98.6465 10.54C98.3034 10.3298 97.8164 10.2246 97.1855 10.2246C96.6654 10.2246 96.2005 10.3021 95.791 10.457C95.3926 10.612 95.0771 10.8389 94.8447 11.1377C94.6234 11.4255 94.5127 11.7741 94.5127 12.1836H89.7148C89.7148 11.0436 90.0413 10.0697 90.6943 9.26172C91.3473 8.44271 92.2217 7.81738 93.3174 7.38574C94.4131 6.94303 95.6139 6.72168 96.9199 6.72168C98.0599 6.72168 99.0892 6.83789 100.008 7.07031C100.926 7.29167 101.712 7.6237 102.365 8.06641C103.018 8.50911 103.516 9.05697 103.859 9.70996C104.214 10.3519 104.391 11.099 104.391 11.9512C104.391 12.5599 104.247 13.1354 103.959 13.6777C103.671 14.2201 103.256 14.7015 102.714 15.1221C102.172 15.5316 101.513 15.8525 100.738 16.085C99.9746 16.3174 99.1113 16.4336 98.1484 16.4336ZM94.5957 15.2383H98.1484C99.222 15.2383 100.163 15.3434 100.971 15.5537C101.79 15.7529 102.476 16.0518 103.029 16.4502C103.583 16.8486 103.998 17.3411 104.274 17.9277C104.562 18.5033 104.706 19.1673 104.706 19.9199C104.706 20.7721 104.518 21.5358 104.142 22.2109C103.765 22.875 103.229 23.4395 102.531 23.9043C101.834 24.3691 101.009 24.7233 100.058 24.9668C99.1058 25.2103 98.0599 25.332 96.9199 25.332C95.7025 25.332 94.5182 25.1328 93.3672 24.7344C92.2161 24.3359 91.2699 23.7217 90.5283 22.8916C89.7979 22.0615 89.4326 20.9935 89.4326 19.6875H94.2305C94.2305 20.0638 94.3411 20.418 94.5625 20.75C94.7839 21.082 95.1159 21.3477 95.5586 21.5469C96.0013 21.735 96.5492 21.8291 97.2021 21.8291C97.8551 21.8291 98.3809 21.724 98.7793 21.5137C99.1777 21.3034 99.4655 21.0267 99.6426 20.6836C99.8307 20.3294 99.9248 19.9642 99.9248 19.5879C99.9248 19.0566 99.8197 18.625 99.6094 18.293C99.4102 17.9609 99.1003 17.7174 98.6797 17.5625C98.2702 17.4076 97.7555 17.3301 97.1357 17.3301H94.5957V15.2383Z" fill="black"/>
<path d="M127.035 19.5049L131.75 7.03711H135.651L128.646 25H125.425L118.452 7.03711H122.354L127.035 19.5049ZM121.208 7.03711V25H116.427V7.03711H121.208ZM132.979 25V7.03711H137.76V25H132.979Z" fill="black"/>
<path d="M147.272 22.9746L152.037 7.03711H157.167L149.945 27.7061C149.79 28.1598 149.58 28.6468 149.314 29.167C149.06 29.6872 148.711 30.1797 148.269 30.6445C147.837 31.1204 147.289 31.5078 146.625 31.8066C145.972 32.1055 145.17 32.2549 144.218 32.2549C143.764 32.2549 143.393 32.2272 143.105 32.1719C142.818 32.1165 142.475 32.0391 142.076 31.9395V28.4365C142.198 28.4365 142.325 28.4365 142.458 28.4365C142.591 28.4476 142.718 28.4531 142.84 28.4531C143.471 28.4531 143.985 28.3812 144.384 28.2373C144.782 28.0934 145.103 27.8721 145.347 27.5732C145.59 27.2855 145.784 26.9092 145.928 26.4443L147.272 22.9746ZM145.28 7.03711L149.182 20.0527L149.862 25.1162L146.608 25.4648L140.15 7.03711H145.28Z" fill="black"/>
<path d="M166.265 21.5967C166.851 21.5967 167.371 21.486 167.825 21.2646C168.279 21.0322 168.633 20.7113 168.888 20.3018C169.153 19.8812 169.292 19.3887 169.303 18.8242H173.802C173.791 20.0859 173.453 21.2093 172.789 22.1943C172.125 23.1683 171.234 23.9375 170.116 24.502C168.998 25.0553 167.748 25.332 166.364 25.332C164.97 25.332 163.752 25.0996 162.712 24.6348C161.683 24.1699 160.825 23.528 160.139 22.709C159.452 21.8789 158.938 20.916 158.595 19.8203C158.252 18.7135 158.08 17.5293 158.08 16.2676V15.7861C158.08 14.5133 158.252 13.3291 158.595 12.2334C158.938 11.1266 159.452 10.1637 160.139 9.34473C160.825 8.51465 161.683 7.86719 162.712 7.40234C163.741 6.9375 164.948 6.70508 166.331 6.70508C167.803 6.70508 169.092 6.9873 170.199 7.55176C171.317 8.11621 172.191 8.92415 172.822 9.97559C173.464 11.016 173.791 12.25 173.802 13.6777H169.303C169.292 13.0801 169.164 12.5378 168.921 12.0508C168.688 11.5638 168.345 11.1764 167.892 10.8887C167.449 10.5898 166.901 10.4404 166.248 10.4404C165.551 10.4404 164.981 10.5898 164.538 10.8887C164.095 11.1764 163.752 11.5749 163.509 12.084C163.265 12.582 163.094 13.152 162.994 13.7939C162.906 14.4248 162.861 15.0889 162.861 15.7861V16.2676C162.861 16.9648 162.906 17.6344 162.994 18.2764C163.083 18.9183 163.249 19.4883 163.492 19.9863C163.747 20.4844 164.095 20.8773 164.538 21.165C164.981 21.4528 165.556 21.5967 166.265 21.5967Z" fill="black"/>
<path d="M175.811 16.2012V15.8525C175.811 14.5355 175.999 13.3236 176.375 12.2168C176.751 11.099 177.299 10.1305 178.019 9.31152C178.738 8.49251 179.623 7.85612 180.675 7.40234C181.726 6.9375 182.933 6.70508 184.294 6.70508C185.655 6.70508 186.867 6.9375 187.93 7.40234C188.992 7.85612 189.883 8.49251 190.603 9.31152C191.333 10.1305 191.886 11.099 192.263 12.2168C192.639 13.3236 192.827 14.5355 192.827 15.8525V16.2012C192.827 17.5072 192.639 18.7191 192.263 19.8369C191.886 20.9437 191.333 21.9121 190.603 22.7422C189.883 23.5612 188.998 24.1976 187.946 24.6514C186.895 25.1051 185.688 25.332 184.327 25.332C182.966 25.332 181.754 25.1051 180.691 24.6514C179.64 24.1976 178.749 23.5612 178.019 22.7422C177.299 21.9121 176.751 20.9437 176.375 19.8369C175.999 18.7191 175.811 17.5072 175.811 16.2012ZM180.592 15.8525V16.2012C180.592 16.9538 180.658 17.6566 180.791 18.3096C180.924 18.9626 181.134 19.5381 181.422 20.0361C181.721 20.5231 182.108 20.9049 182.584 21.1816C183.06 21.4583 183.641 21.5967 184.327 21.5967C184.991 21.5967 185.561 21.4583 186.037 21.1816C186.513 20.9049 186.895 20.5231 187.183 20.0361C187.47 19.5381 187.681 18.9626 187.813 18.3096C187.957 17.6566 188.029 16.9538 188.029 16.2012V15.8525C188.029 15.1221 187.957 14.4359 187.813 13.7939C187.681 13.141 187.465 12.5654 187.166 12.0674C186.878 11.5583 186.496 11.1598 186.021 10.8721C185.545 10.5843 184.969 10.4404 184.294 10.4404C183.619 10.4404 183.043 10.5843 182.567 10.8721C182.103 11.1598 181.721 11.5583 181.422 12.0674C181.134 12.5654 180.924 13.141 180.791 13.7939C180.658 14.4359 180.592 15.1221 180.592 15.8525Z" fill="black"/>
<path d="M200.547 10.4902V31.9062H195.766V7.03711H200.198L200.547 10.4902ZM211.919 15.8193V16.168C211.919 17.474 211.764 18.6859 211.454 19.8037C211.155 20.9215 210.713 21.8955 210.126 22.7256C209.539 23.5446 208.809 24.1865 207.935 24.6514C207.071 25.1051 206.075 25.332 204.946 25.332C203.851 25.332 202.899 25.1107 202.091 24.668C201.283 24.2253 200.602 23.6055 200.049 22.8086C199.507 22.0007 199.069 21.0654 198.737 20.0029C198.405 18.9404 198.151 17.8005 197.974 16.583V15.6699C198.151 14.3639 198.405 13.1686 198.737 12.084C199.069 10.9883 199.507 10.042 200.049 9.24512C200.602 8.43717 201.277 7.81185 202.074 7.36914C202.882 6.92643 203.828 6.70508 204.913 6.70508C206.053 6.70508 207.055 6.9209 207.918 7.35254C208.792 7.78418 209.523 8.40397 210.109 9.21191C210.707 10.0199 211.155 10.9827 211.454 12.1006C211.764 13.2184 211.919 14.458 211.919 15.8193ZM207.121 16.168V15.8193C207.121 15.0557 207.055 14.3529 206.922 13.7109C206.8 13.0579 206.601 12.488 206.324 12.001C206.059 11.514 205.704 11.1377 205.262 10.8721C204.83 10.5954 204.304 10.457 203.685 10.457C203.032 10.457 202.473 10.5622 202.008 10.7725C201.554 10.9827 201.183 11.2871 200.896 11.6855C200.608 12.084 200.392 12.5599 200.248 13.1133C200.104 13.6667 200.016 14.292 199.982 14.9893V17.2969C200.038 18.1159 200.193 18.8519 200.447 19.5049C200.702 20.1468 201.095 20.6559 201.626 21.0322C202.157 21.4085 202.854 21.5967 203.718 21.5967C204.349 21.5967 204.88 21.4583 205.312 21.1816C205.743 20.8939 206.092 20.501 206.357 20.0029C206.634 19.5049 206.828 18.9294 206.938 18.2764C207.06 17.6234 207.121 16.9206 207.121 16.168Z" fill="black"/>
<path d="M224.586 20.9492V12.9473C224.586 12.3717 224.492 11.8792 224.304 11.4697C224.116 11.0492 223.822 10.7227 223.424 10.4902C223.036 10.2578 222.533 10.1416 221.913 10.1416C221.382 10.1416 220.923 10.2357 220.535 10.4238C220.148 10.6009 219.849 10.861 219.639 11.2041C219.428 11.5361 219.323 11.929 219.323 12.3828H214.542C214.542 11.6191 214.719 10.8942 215.073 10.208C215.427 9.52181 215.942 8.91862 216.617 8.39844C217.292 7.86719 218.095 7.45215 219.024 7.15332C219.965 6.85449 221.017 6.70508 222.179 6.70508C223.573 6.70508 224.813 6.9375 225.897 7.40234C226.982 7.86719 227.834 8.56445 228.454 9.49414C229.085 10.4238 229.4 11.5859 229.4 12.9805V20.667C229.4 21.652 229.461 22.46 229.583 23.0908C229.705 23.7106 229.882 24.2529 230.114 24.7178V25H225.283C225.051 24.513 224.874 23.9043 224.752 23.1738C224.641 22.4323 224.586 21.6908 224.586 20.9492ZM225.217 14.0596L225.25 16.7656H222.577C221.946 16.7656 221.398 16.8376 220.934 16.9814C220.469 17.1253 220.087 17.3301 219.788 17.5957C219.489 17.8503 219.268 18.1491 219.124 18.4922C218.991 18.8353 218.925 19.2116 218.925 19.6211C218.925 20.0306 219.019 20.4014 219.207 20.7334C219.395 21.0544 219.666 21.3089 220.021 21.4971C220.375 21.6742 220.79 21.7627 221.266 21.7627C221.985 21.7627 222.61 21.6188 223.142 21.3311C223.673 21.0433 224.082 20.6891 224.37 20.2686C224.669 19.848 224.824 19.4495 224.835 19.0732L226.097 21.0986C225.92 21.5524 225.676 22.0228 225.366 22.5098C225.067 22.9967 224.686 23.4561 224.221 23.8877C223.756 24.3083 223.197 24.6569 222.544 24.9336C221.891 25.1992 221.116 25.332 220.22 25.332C219.08 25.332 218.045 25.1051 217.115 24.6514C216.197 24.1865 215.466 23.5501 214.924 22.7422C214.393 21.9232 214.127 20.9935 214.127 19.9531C214.127 19.0124 214.304 18.1768 214.658 17.4463C215.012 16.7158 215.533 16.1016 216.219 15.6035C216.916 15.0944 217.785 14.7126 218.825 14.458C219.866 14.1924 221.072 14.0596 222.444 14.0596H225.217Z" fill="black"/>
<path d="M8.63281 36.625V37.8594H3.42969V36.625H8.63281ZM9.92969 36.625V48H8.42188V36.625H9.92969ZM2.91406 36.625H4.41406L4.15625 42.1953C4.11979 42.9974 4.05729 43.7135 3.96875 44.3438C3.88542 44.9688 3.76562 45.513 3.60938 45.9766C3.45312 46.4349 3.25 46.8151 3 47.1172C2.75 47.4141 2.44271 47.6354 2.07812 47.7812C1.71875 47.9271 1.28646 48 0.78125 48H0.375V46.7734L0.6875 46.75C0.979167 46.7292 1.22917 46.6641 1.4375 46.5547C1.65104 46.4401 1.83073 46.2682 1.97656 46.0391C2.1276 45.8099 2.25 45.513 2.34375 45.1484C2.4375 44.7839 2.51042 44.3385 2.5625 43.8125C2.61979 43.2812 2.66406 42.6615 2.69531 41.9531L2.91406 36.625Z" fill="black"/>
<path d="M13.9922 45.7109L17.8906 39.5469H19.3438V48H17.8906V41.8359L13.9922 48H12.5547V39.5469H13.9922V45.7109Z" fill="black"/>
<path d="M21.7891 48V39.5469H23.2344V46.8125H27.125V39.5469H28.5781V48H21.7891ZM29.5781 46.8125L29.4375 50.5078H28.1484V48H27.0469V46.8125H29.5781Z" fill="black"/>
<path d="M34.6562 48.1562C34.0677 48.1562 33.5339 48.0573 33.0547 47.8594C32.5807 47.6562 32.1719 47.3724 31.8281 47.0078C31.4896 46.6432 31.2292 46.2109 31.0469 45.7109C30.8646 45.2109 30.7734 44.6641 30.7734 44.0703V43.7422C30.7734 43.0547 30.875 42.4427 31.0781 41.9062C31.2812 41.3646 31.5573 40.9062 31.9062 40.5312C32.2552 40.1562 32.651 39.8724 33.0938 39.6797C33.5365 39.487 33.9948 39.3906 34.4688 39.3906C35.0729 39.3906 35.5938 39.4948 36.0312 39.7031C36.474 39.9115 36.8359 40.2031 37.1172 40.5781C37.3984 40.9479 37.6068 41.3854 37.7422 41.8906C37.8776 42.3906 37.9453 42.9375 37.9453 43.5312V44.1797H31.6328V43H36.5V42.8906C36.4792 42.5156 36.401 42.151 36.2656 41.7969C36.1354 41.4427 35.9271 41.151 35.6406 40.9219C35.3542 40.6927 34.9635 40.5781 34.4688 40.5781C34.1406 40.5781 33.8385 40.6484 33.5625 40.7891C33.2865 40.9245 33.0495 41.1276 32.8516 41.3984C32.6536 41.6693 32.5 42 32.3906 42.3906C32.2812 42.7812 32.2266 43.2318 32.2266 43.7422V44.0703C32.2266 44.4714 32.2812 44.849 32.3906 45.2031C32.5052 45.5521 32.6693 45.8594 32.8828 46.125C33.1016 46.3906 33.3646 46.599 33.6719 46.75C33.9844 46.901 34.3385 46.9766 34.7344 46.9766C35.2448 46.9766 35.6771 46.8724 36.0312 46.6641C36.3854 46.4557 36.6953 46.1771 36.9609 45.8281L37.8359 46.5234C37.6536 46.7995 37.4219 47.0625 37.1406 47.3125C36.8594 47.5625 36.513 47.7656 36.1016 47.9219C35.6953 48.0781 35.2135 48.1562 34.6562 48.1562Z" fill="black"/>
<path d="M45.3672 43.2109V44.3828H40.8984V43.2109H45.3672ZM41.2031 39.5469V48H39.7578V39.5469H41.2031ZM46.5391 39.5469V48H45.0859V39.5469H46.5391Z" fill="black"/>
<path d="M52.0234 43.9609H50.4688V43.0703H51.9062C52.3073 43.0703 52.625 43.0208 52.8594 42.9219C53.0938 42.8177 53.2604 42.6745 53.3594 42.4922C53.4583 42.3099 53.5078 42.0964 53.5078 41.8516C53.5078 41.6328 53.4505 41.4271 53.3359 41.2344C53.2266 41.0365 53.0495 40.8776 52.8047 40.7578C52.5599 40.6328 52.2318 40.5703 51.8203 40.5703C51.487 40.5703 51.1849 40.6302 50.9141 40.75C50.6432 40.8646 50.4271 41.0234 50.2656 41.2266C50.1094 41.4245 50.0312 41.6484 50.0312 41.8984H48.5859C48.5859 41.3828 48.7318 40.9401 49.0234 40.5703C49.3203 40.1953 49.7135 39.9062 50.2031 39.7031C50.6979 39.5 51.237 39.3984 51.8203 39.3984C52.3099 39.3984 52.7474 39.4531 53.1328 39.5625C53.5234 39.6667 53.8542 39.8229 54.125 40.0312C54.3958 40.2344 54.6016 40.4896 54.7422 40.7969C54.888 41.099 54.9609 41.4505 54.9609 41.8516C54.9609 42.138 54.8932 42.4089 54.7578 42.6641C54.6224 42.9193 54.4271 43.1458 54.1719 43.3438C53.9167 43.5365 53.6068 43.6875 53.2422 43.7969C52.8828 43.9062 52.4766 43.9609 52.0234 43.9609ZM50.4688 43.4141H52.0234C52.5286 43.4141 52.974 43.4635 53.3594 43.5625C53.7448 43.6562 54.0677 43.7969 54.3281 43.9844C54.5885 44.1719 54.7839 44.4036 54.9141 44.6797C55.0495 44.9505 55.1172 45.263 55.1172 45.6172C55.1172 46.013 55.0365 46.3698 54.875 46.6875C54.7188 47 54.4948 47.2656 54.2031 47.4844C53.9115 47.7031 53.5625 47.8698 53.1562 47.9844C52.7552 48.099 52.3099 48.1562 51.8203 48.1562C51.2734 48.1562 50.7422 48.0625 50.2266 47.875C49.7109 47.6875 49.2865 47.3984 48.9531 47.0078C48.6198 46.612 48.4531 46.1094 48.4531 45.5H49.8984C49.8984 45.7552 49.9792 45.9974 50.1406 46.2266C50.3021 46.4557 50.526 46.6406 50.8125 46.7812C51.1042 46.9219 51.4401 46.9922 51.8203 46.9922C52.2266 46.9922 52.5651 46.9297 52.8359 46.8047C53.1068 46.6797 53.3099 46.513 53.4453 46.3047C53.5859 46.0964 53.6562 45.8698 53.6562 45.625C53.6562 45.3073 53.5938 45.0521 53.4688 44.8594C53.3438 44.6667 53.151 44.526 52.8906 44.4375C52.6354 44.3438 52.3073 44.2969 51.9062 44.2969H50.4688V43.4141Z" fill="black"/>
<path d="M58.5547 45.7109L62.4531 39.5469H63.9062V48H62.4531V41.8359L58.5547 48H57.1172V39.5469H58.5547V45.7109Z" fill="black"/>
<path d="M67.9375 43.9688H69.5L67.0547 48H65.4922L67.9375 43.9688ZM69.1484 39.5469H72.6797V48H71.2344V40.7188H69.1484C68.737 40.7188 68.401 40.7891 68.1406 40.9297C67.8802 41.0651 67.6901 41.2422 67.5703 41.4609C67.4505 41.6797 67.3906 41.9062 67.3906 42.1406C67.3906 42.3698 67.4453 42.5911 67.5547 42.8047C67.6641 43.013 67.8359 43.1849 68.0703 43.3203C68.3047 43.4557 68.6068 43.5234 68.9766 43.5234H71.625V44.7109H68.9766C68.4922 44.7109 68.0625 44.6458 67.6875 44.5156C67.3125 44.3854 66.9948 44.2057 66.7344 43.9766C66.474 43.7422 66.276 43.4688 66.1406 43.1562C66.0052 42.8385 65.9375 42.4948 65.9375 42.125C65.9375 41.7552 66.0078 41.4141 66.1484 41.1016C66.2943 40.7891 66.5026 40.5156 66.7734 40.2812C67.0495 40.0469 67.3854 39.8672 67.7812 39.7422C68.1823 39.612 68.638 39.5469 69.1484 39.5469Z" fill="black"/>
<path d="M85.9609 41.4062V43.1406C85.9609 44.0729 85.8776 44.8594 85.7109 45.5C85.5443 46.1406 85.3047 46.6562 84.9922 47.0469C84.6797 47.4375 84.3021 47.7214 83.8594 47.8984C83.4219 48.0703 82.9271 48.1562 82.375 48.1562C81.9375 48.1562 81.5339 48.1016 81.1641 47.9922C80.7943 47.8828 80.4609 47.7083 80.1641 47.4688C79.8724 47.224 79.6224 46.9062 79.4141 46.5156C79.2057 46.125 79.0469 45.651 78.9375 45.0938C78.8281 44.5365 78.7734 43.8854 78.7734 43.1406V41.4062C78.7734 40.474 78.8568 39.6927 79.0234 39.0625C79.1953 38.4323 79.4375 37.9271 79.75 37.5469C80.0625 37.1615 80.4375 36.8854 80.875 36.7188C81.3177 36.5521 81.8125 36.4688 82.3594 36.4688C82.8021 36.4688 83.2083 36.5234 83.5781 36.6328C83.9531 36.737 84.2865 36.9062 84.5781 37.1406C84.8698 37.3698 85.1172 37.6771 85.3203 38.0625C85.5286 38.4427 85.6875 38.9089 85.7969 39.4609C85.9062 40.013 85.9609 40.6615 85.9609 41.4062ZM84.5078 43.375V41.1641C84.5078 40.6536 84.4766 40.2057 84.4141 39.8203C84.3568 39.4297 84.2708 39.0964 84.1562 38.8203C84.0417 38.5443 83.8958 38.3203 83.7188 38.1484C83.5469 37.9766 83.3464 37.8516 83.1172 37.7734C82.8932 37.6901 82.6406 37.6484 82.3594 37.6484C82.0156 37.6484 81.7109 37.7135 81.4453 37.8438C81.1797 37.9688 80.9557 38.1693 80.7734 38.4453C80.5964 38.7214 80.4609 39.0833 80.3672 39.5312C80.2734 39.9792 80.2266 40.5234 80.2266 41.1641V43.375C80.2266 43.8854 80.2552 44.3359 80.3125 44.7266C80.375 45.1172 80.4661 45.4557 80.5859 45.7422C80.7057 46.0234 80.8516 46.2552 81.0234 46.4375C81.1953 46.6198 81.3932 46.7552 81.6172 46.8438C81.8464 46.9271 82.099 46.9688 82.375 46.9688C82.7292 46.9688 83.0391 46.901 83.3047 46.7656C83.5703 46.6302 83.7917 46.4193 83.9688 46.1328C84.151 45.8411 84.2865 45.4688 84.375 45.0156C84.4635 44.5573 84.5078 44.0104 84.5078 43.375Z" fill="black"/>
<path d="M95.1719 36.625V37.4375L90.4609 48H88.9375L93.6406 37.8125H87.4844V36.625H95.1719Z" fill="black"/>
<path d="M104.172 36.625V37.4375L99.4609 48H97.9375L102.641 37.8125H96.4844V36.625H104.172Z" fill="black"/>
<path d="M116.961 44.9219C116.961 45.6146 116.799 46.2031 116.477 46.6875C116.159 47.1667 115.727 47.5312 115.18 47.7812C114.638 48.0312 114.026 48.1562 113.344 48.1562C112.661 48.1562 112.047 48.0312 111.5 47.7812C110.953 47.5312 110.521 47.1667 110.203 46.6875C109.885 46.2031 109.727 45.6146 109.727 44.9219C109.727 44.4688 109.812 44.0547 109.984 43.6797C110.161 43.2995 110.409 42.9688 110.727 42.6875C111.049 42.4062 111.43 42.1901 111.867 42.0391C112.31 41.8828 112.797 41.8047 113.328 41.8047C114.026 41.8047 114.648 41.9401 115.195 42.2109C115.742 42.4766 116.172 42.8438 116.484 43.3125C116.802 43.7812 116.961 44.3177 116.961 44.9219ZM115.508 44.8906C115.508 44.4688 115.417 44.0964 115.234 43.7734C115.052 43.4453 114.797 43.1901 114.469 43.0078C114.141 42.8255 113.76 42.7344 113.328 42.7344C112.885 42.7344 112.503 42.8255 112.18 43.0078C111.862 43.1901 111.615 43.4453 111.438 43.7734C111.26 44.0964 111.172 44.4688 111.172 44.8906C111.172 45.3281 111.258 45.7031 111.43 46.0156C111.607 46.3229 111.857 46.5599 112.18 46.7266C112.508 46.888 112.896 46.9688 113.344 46.9688C113.792 46.9688 114.177 46.888 114.5 46.7266C114.823 46.5599 115.07 46.3229 115.242 46.0156C115.419 45.7031 115.508 45.3281 115.508 44.8906ZM116.695 39.5859C116.695 40.138 116.549 40.6354 116.258 41.0781C115.966 41.5208 115.568 41.8698 115.062 42.125C114.557 42.3802 113.984 42.5078 113.344 42.5078C112.693 42.5078 112.112 42.3802 111.602 42.125C111.096 41.8698 110.701 41.5208 110.414 41.0781C110.128 40.6354 109.984 40.138 109.984 39.5859C109.984 38.9245 110.128 38.362 110.414 37.8984C110.706 37.4349 111.104 37.0807 111.609 36.8359C112.115 36.5911 112.69 36.4688 113.336 36.4688C113.987 36.4688 114.565 36.5911 115.07 36.8359C115.576 37.0807 115.971 37.4349 116.258 37.8984C116.549 38.362 116.695 38.9245 116.695 39.5859ZM115.25 39.6094C115.25 39.2292 115.169 38.8932 115.008 38.6016C114.846 38.3099 114.622 38.0807 114.336 37.9141C114.049 37.7422 113.716 37.6562 113.336 37.6562C112.956 37.6562 112.622 37.737 112.336 37.8984C112.055 38.0547 111.833 38.2786 111.672 38.5703C111.516 38.862 111.438 39.2083 111.438 39.6094C111.438 40 111.516 40.3411 111.672 40.6328C111.833 40.9245 112.057 41.151 112.344 41.3125C112.63 41.474 112.964 41.5547 113.344 41.5547C113.724 41.5547 114.055 41.474 114.336 41.3125C114.622 41.151 114.846 40.9245 115.008 40.6328C115.169 40.3411 115.25 40 115.25 39.6094Z" fill="black"/>
<path d="M126.477 44.1719V45.3594H118.258V44.5078L123.352 36.625H124.531L123.266 38.9062L119.898 44.1719H126.477ZM124.891 36.625V48H123.445V36.625H124.891Z" fill="black"/>
<path d="M129.227 46.7891H129.375C130.208 46.7891 130.885 46.6719 131.406 46.4375C131.927 46.2031 132.328 45.888 132.609 45.4922C132.891 45.0964 133.083 44.651 133.188 44.1562C133.292 43.6562 133.344 43.1432 133.344 42.6172V40.875C133.344 40.3594 133.284 39.901 133.164 39.5C133.049 39.099 132.888 38.763 132.68 38.4922C132.477 38.2214 132.245 38.0156 131.984 37.875C131.724 37.7344 131.448 37.6641 131.156 37.6641C130.823 37.6641 130.523 37.7318 130.258 37.8672C129.997 37.9974 129.776 38.1823 129.594 38.4219C129.417 38.6615 129.281 38.9427 129.188 39.2656C129.094 39.5885 129.047 39.9401 129.047 40.3203C129.047 40.6589 129.089 40.987 129.172 41.3047C129.255 41.6224 129.383 41.9089 129.555 42.1641C129.727 42.4193 129.94 42.6224 130.195 42.7734C130.456 42.9193 130.76 42.9922 131.109 42.9922C131.432 42.9922 131.734 42.9297 132.016 42.8047C132.302 42.6745 132.555 42.5 132.773 42.2812C132.997 42.0573 133.174 41.8047 133.305 41.5234C133.44 41.2422 133.518 40.9479 133.539 40.6406H134.227C134.227 41.0729 134.141 41.5 133.969 41.9219C133.802 42.3385 133.568 42.7188 133.266 43.0625C132.964 43.4062 132.609 43.6823 132.203 43.8906C131.797 44.0938 131.354 44.1953 130.875 44.1953C130.312 44.1953 129.826 44.0859 129.414 43.8672C129.003 43.6484 128.664 43.3568 128.398 42.9922C128.138 42.6276 127.943 42.2214 127.812 41.7734C127.688 41.3203 127.625 40.862 127.625 40.3984C127.625 39.8568 127.701 39.349 127.852 38.875C128.003 38.401 128.227 37.9844 128.523 37.625C128.82 37.2604 129.188 36.9766 129.625 36.7734C130.068 36.5703 130.578 36.4688 131.156 36.4688C131.807 36.4688 132.362 36.599 132.82 36.8594C133.279 37.1198 133.651 37.4688 133.938 37.9062C134.229 38.3438 134.443 38.8359 134.578 39.3828C134.714 39.9297 134.781 40.4922 134.781 41.0703V41.5938C134.781 42.1823 134.742 42.7812 134.664 43.3906C134.591 43.9948 134.448 44.5729 134.234 45.125C134.026 45.6771 133.721 46.1719 133.32 46.6094C132.919 47.0417 132.396 47.3854 131.75 47.6406C131.109 47.8906 130.318 48.0156 129.375 48.0156H129.227V46.7891Z" fill="black"/>
<path d="M140.531 43.8672V43.6875C140.531 43.0781 140.62 42.513 140.797 41.9922C140.974 41.4661 141.229 41.0104 141.562 40.625C141.896 40.2344 142.299 39.9323 142.773 39.7188C143.247 39.5 143.779 39.3906 144.367 39.3906C144.961 39.3906 145.495 39.5 145.969 39.7188C146.448 39.9323 146.854 40.2344 147.188 40.625C147.526 41.0104 147.784 41.4661 147.961 41.9922C148.138 42.513 148.227 43.0781 148.227 43.6875V43.8672C148.227 44.4766 148.138 45.0417 147.961 45.5625C147.784 46.0833 147.526 46.5391 147.188 46.9297C146.854 47.3151 146.451 47.6172 145.977 47.8359C145.508 48.0495 144.977 48.1562 144.383 48.1562C143.789 48.1562 143.255 48.0495 142.781 47.8359C142.307 47.6172 141.901 47.3151 141.562 46.9297C141.229 46.5391 140.974 46.0833 140.797 45.5625C140.62 45.0417 140.531 44.4766 140.531 43.8672ZM141.977 43.6875V43.8672C141.977 44.2891 142.026 44.6875 142.125 45.0625C142.224 45.4323 142.372 45.7604 142.57 46.0469C142.773 46.3333 143.026 46.5599 143.328 46.7266C143.63 46.888 143.982 46.9688 144.383 46.9688C144.779 46.9688 145.125 46.888 145.422 46.7266C145.724 46.5599 145.974 46.3333 146.172 46.0469C146.37 45.7604 146.518 45.4323 146.617 45.0625C146.721 44.6875 146.773 44.2891 146.773 43.8672V43.6875C146.773 43.2708 146.721 42.8776 146.617 42.5078C146.518 42.1328 146.367 41.8021 146.164 41.5156C145.966 41.224 145.716 40.9948 145.414 40.8281C145.117 40.6615 144.768 40.5781 144.367 40.5781C143.971 40.5781 143.622 40.6615 143.32 40.8281C143.023 40.9948 142.773 41.224 142.57 41.5156C142.372 41.8021 142.224 42.1328 142.125 42.5078C142.026 42.8776 141.977 43.2708 141.977 43.6875Z" fill="black"/>
<path d="M153.312 39.5469V48H151.859V39.5469H153.312ZM156.148 39.5469V40.7188H149.078V39.5469H156.148Z" fill="black"/>
<path d="M166.133 36.5625V48H164.688V38.3672L161.773 39.4297V38.125L165.906 36.5625H166.133Z" fill="black"/>
<path d="M171.82 46.7891H171.969C172.802 46.7891 173.479 46.6719 174 46.4375C174.521 46.2031 174.922 45.888 175.203 45.4922C175.484 45.0964 175.677 44.651 175.781 44.1562C175.885 43.6562 175.938 43.1432 175.938 42.6172V40.875C175.938 40.3594 175.878 39.901 175.758 39.5C175.643 39.099 175.482 38.763 175.273 38.4922C175.07 38.2214 174.839 38.0156 174.578 37.875C174.318 37.7344 174.042 37.6641 173.75 37.6641C173.417 37.6641 173.117 37.7318 172.852 37.8672C172.591 37.9974 172.37 38.1823 172.188 38.4219C172.01 38.6615 171.875 38.9427 171.781 39.2656C171.688 39.5885 171.641 39.9401 171.641 40.3203C171.641 40.6589 171.682 40.987 171.766 41.3047C171.849 41.6224 171.977 41.9089 172.148 42.1641C172.32 42.4193 172.534 42.6224 172.789 42.7734C173.049 42.9193 173.354 42.9922 173.703 42.9922C174.026 42.9922 174.328 42.9297 174.609 42.8047C174.896 42.6745 175.148 42.5 175.367 42.2812C175.591 42.0573 175.768 41.8047 175.898 41.5234C176.034 41.2422 176.112 40.9479 176.133 40.6406H176.82C176.82 41.0729 176.734 41.5 176.562 41.9219C176.396 42.3385 176.161 42.7188 175.859 43.0625C175.557 43.4062 175.203 43.6823 174.797 43.8906C174.391 44.0938 173.948 44.1953 173.469 44.1953C172.906 44.1953 172.419 44.0859 172.008 43.8672C171.596 43.6484 171.258 43.3568 170.992 42.9922C170.732 42.6276 170.536 42.2214 170.406 41.7734C170.281 41.3203 170.219 40.862 170.219 40.3984C170.219 39.8568 170.294 39.349 170.445 38.875C170.596 38.401 170.82 37.9844 171.117 37.625C171.414 37.2604 171.781 36.9766 172.219 36.7734C172.661 36.5703 173.172 36.4688 173.75 36.4688C174.401 36.4688 174.956 36.599 175.414 36.8594C175.872 37.1198 176.245 37.4688 176.531 37.9062C176.823 38.3438 177.036 38.8359 177.172 39.3828C177.307 39.9297 177.375 40.4922 177.375 41.0703V41.5938C177.375 42.1823 177.336 42.7812 177.258 43.3906C177.185 43.9948 177.042 44.5729 176.828 45.125C176.62 45.6771 176.315 46.1719 175.914 46.6094C175.513 47.0417 174.99 47.3854 174.344 47.6406C173.703 47.8906 172.911 48.0156 171.969 48.0156H171.82V46.7891Z" fill="black"/>
<path d="M179.562 47.2344C179.562 46.9896 179.638 46.7839 179.789 46.6172C179.945 46.4453 180.169 46.3594 180.461 46.3594C180.753 46.3594 180.974 46.4453 181.125 46.6172C181.281 46.7839 181.359 46.9896 181.359 47.2344C181.359 47.474 181.281 47.6771 181.125 47.8438C180.974 48.0104 180.753 48.0938 180.461 48.0938C180.169 48.0938 179.945 48.0104 179.789 47.8438C179.638 47.6771 179.562 47.474 179.562 47.2344Z" fill="black"/>
<path d="M190.742 41.4062V43.1406C190.742 44.0729 190.659 44.8594 190.492 45.5C190.326 46.1406 190.086 46.6562 189.773 47.0469C189.461 47.4375 189.083 47.7214 188.641 47.8984C188.203 48.0703 187.708 48.1562 187.156 48.1562C186.719 48.1562 186.315 48.1016 185.945 47.9922C185.576 47.8828 185.242 47.7083 184.945 47.4688C184.654 47.224 184.404 46.9062 184.195 46.5156C183.987 46.125 183.828 45.651 183.719 45.0938C183.609 44.5365 183.555 43.8854 183.555 43.1406V41.4062C183.555 40.474 183.638 39.6927 183.805 39.0625C183.977 38.4323 184.219 37.9271 184.531 37.5469C184.844 37.1615 185.219 36.8854 185.656 36.7188C186.099 36.5521 186.594 36.4688 187.141 36.4688C187.583 36.4688 187.99 36.5234 188.359 36.6328C188.734 36.737 189.068 36.9062 189.359 37.1406C189.651 37.3698 189.898 37.6771 190.102 38.0625C190.31 38.4427 190.469 38.9089 190.578 39.4609C190.688 40.013 190.742 40.6615 190.742 41.4062ZM189.289 43.375V41.1641C189.289 40.6536 189.258 40.2057 189.195 39.8203C189.138 39.4297 189.052 39.0964 188.938 38.8203C188.823 38.5443 188.677 38.3203 188.5 38.1484C188.328 37.9766 188.128 37.8516 187.898 37.7734C187.674 37.6901 187.422 37.6484 187.141 37.6484C186.797 37.6484 186.492 37.7135 186.227 37.8438C185.961 37.9688 185.737 38.1693 185.555 38.4453C185.378 38.7214 185.242 39.0833 185.148 39.5312C185.055 39.9792 185.008 40.5234 185.008 41.1641V43.375C185.008 43.8854 185.036 44.3359 185.094 44.7266C185.156 45.1172 185.247 45.4557 185.367 45.7422C185.487 46.0234 185.633 46.2552 185.805 46.4375C185.977 46.6198 186.174 46.7552 186.398 46.8438C186.628 46.9271 186.88 46.9688 187.156 46.9688C187.51 46.9688 187.82 46.901 188.086 46.7656C188.352 46.6302 188.573 46.4193 188.75 46.1328C188.932 45.8411 189.068 45.4688 189.156 45.0156C189.245 44.5573 189.289 44.0104 189.289 43.375Z" fill="black"/>
<path d="M194.039 46.7891H194.188C195.021 46.7891 195.698 46.6719 196.219 46.4375C196.74 46.2031 197.141 45.888 197.422 45.4922C197.703 45.0964 197.896 44.651 198 44.1562C198.104 43.6562 198.156 43.1432 198.156 42.6172V40.875C198.156 40.3594 198.096 39.901 197.977 39.5C197.862 39.099 197.701 38.763 197.492 38.4922C197.289 38.2214 197.057 38.0156 196.797 37.875C196.536 37.7344 196.26 37.6641 195.969 37.6641C195.635 37.6641 195.336 37.7318 195.07 37.8672C194.81 37.9974 194.589 38.1823 194.406 38.4219C194.229 38.6615 194.094 38.9427 194 39.2656C193.906 39.5885 193.859 39.9401 193.859 40.3203C193.859 40.6589 193.901 40.987 193.984 41.3047C194.068 41.6224 194.195 41.9089 194.367 42.1641C194.539 42.4193 194.753 42.6224 195.008 42.7734C195.268 42.9193 195.573 42.9922 195.922 42.9922C196.245 42.9922 196.547 42.9297 196.828 42.8047C197.115 42.6745 197.367 42.5 197.586 42.2812C197.81 42.0573 197.987 41.8047 198.117 41.5234C198.253 41.2422 198.331 40.9479 198.352 40.6406H199.039C199.039 41.0729 198.953 41.5 198.781 41.9219C198.615 42.3385 198.38 42.7188 198.078 43.0625C197.776 43.4062 197.422 43.6823 197.016 43.8906C196.609 44.0938 196.167 44.1953 195.688 44.1953C195.125 44.1953 194.638 44.0859 194.227 43.8672C193.815 43.6484 193.477 43.3568 193.211 42.9922C192.951 42.6276 192.755 42.2214 192.625 41.7734C192.5 41.3203 192.438 40.862 192.438 40.3984C192.438 39.8568 192.513 39.349 192.664 38.875C192.815 38.401 193.039 37.9844 193.336 37.625C193.633 37.2604 194 36.9766 194.438 36.7734C194.88 36.5703 195.391 36.4688 195.969 36.4688C196.62 36.4688 197.174 36.599 197.633 36.8594C198.091 37.1198 198.464 37.4688 198.75 37.9062C199.042 38.3438 199.255 38.8359 199.391 39.3828C199.526 39.9297 199.594 40.4922 199.594 41.0703V41.5938C199.594 42.1823 199.555 42.7812 199.477 43.3906C199.404 43.9948 199.26 44.5729 199.047 45.125C198.839 45.6771 198.534 46.1719 198.133 46.6094C197.732 47.0417 197.208 47.3854 196.562 47.6406C195.922 47.8906 195.13 48.0156 194.188 48.0156H194.039V46.7891Z" fill="black"/>
<path d="M201.781 47.2344C201.781 46.9896 201.857 46.7839 202.008 46.6172C202.164 46.4453 202.388 46.3594 202.68 46.3594C202.971 46.3594 203.193 46.4453 203.344 46.6172C203.5 46.7839 203.578 46.9896 203.578 47.2344C203.578 47.474 203.5 47.6771 203.344 47.8438C203.193 48.0104 202.971 48.0938 202.68 48.0938C202.388 48.0938 202.164 48.0104 202.008 47.8438C201.857 47.6771 201.781 47.474 201.781 47.2344Z" fill="black"/>
<path d="M213.273 46.8125V48H205.828V46.9609L209.555 42.8125C210.013 42.3021 210.367 41.8698 210.617 41.5156C210.872 41.1562 211.049 40.8359 211.148 40.5547C211.253 40.2682 211.305 39.9766 211.305 39.6797C211.305 39.3047 211.227 38.9661 211.07 38.6641C210.919 38.3568 210.695 38.112 210.398 37.9297C210.102 37.7474 209.742 37.6562 209.32 37.6562C208.815 37.6562 208.393 37.7552 208.055 37.9531C207.721 38.1458 207.471 38.4167 207.305 38.7656C207.138 39.1146 207.055 39.5156 207.055 39.9688H205.609C205.609 39.3281 205.75 38.7422 206.031 38.2109C206.312 37.6797 206.729 37.2578 207.281 36.9453C207.833 36.6276 208.513 36.4688 209.32 36.4688C210.039 36.4688 210.654 36.5964 211.164 36.8516C211.674 37.1016 212.065 37.4557 212.336 37.9141C212.612 38.3672 212.75 38.8984 212.75 39.5078C212.75 39.8411 212.693 40.1797 212.578 40.5234C212.469 40.862 212.315 41.2005 212.117 41.5391C211.924 41.8776 211.698 42.2109 211.438 42.5391C211.182 42.8672 210.909 43.1901 210.617 43.5078L207.57 46.8125H213.273Z" fill="black"/>
<path d="M221.961 41.4062V43.1406C221.961 44.0729 221.878 44.8594 221.711 45.5C221.544 46.1406 221.305 46.6562 220.992 47.0469C220.68 47.4375 220.302 47.7214 219.859 47.8984C219.422 48.0703 218.927 48.1562 218.375 48.1562C217.938 48.1562 217.534 48.1016 217.164 47.9922C216.794 47.8828 216.461 47.7083 216.164 47.4688C215.872 47.224 215.622 46.9062 215.414 46.5156C215.206 46.125 215.047 45.651 214.938 45.0938C214.828 44.5365 214.773 43.8854 214.773 43.1406V41.4062C214.773 40.474 214.857 39.6927 215.023 39.0625C215.195 38.4323 215.438 37.9271 215.75 37.5469C216.062 37.1615 216.438 36.8854 216.875 36.7188C217.318 36.5521 217.812 36.4688 218.359 36.4688C218.802 36.4688 219.208 36.5234 219.578 36.6328C219.953 36.737 220.286 36.9062 220.578 37.1406C220.87 37.3698 221.117 37.6771 221.32 38.0625C221.529 38.4427 221.688 38.9089 221.797 39.4609C221.906 40.013 221.961 40.6615 221.961 41.4062ZM220.508 43.375V41.1641C220.508 40.6536 220.477 40.2057 220.414 39.8203C220.357 39.4297 220.271 39.0964 220.156 38.8203C220.042 38.5443 219.896 38.3203 219.719 38.1484C219.547 37.9766 219.346 37.8516 219.117 37.7734C218.893 37.6901 218.641 37.6484 218.359 37.6484C218.016 37.6484 217.711 37.7135 217.445 37.8438C217.18 37.9688 216.956 38.1693 216.773 38.4453C216.596 38.7214 216.461 39.0833 216.367 39.5312C216.273 39.9792 216.227 40.5234 216.227 41.1641V43.375C216.227 43.8854 216.255 44.3359 216.312 44.7266C216.375 45.1172 216.466 45.4557 216.586 45.7422C216.706 46.0234 216.852 46.2552 217.023 46.4375C217.195 46.6198 217.393 46.7552 217.617 46.8438C217.846 46.9271 218.099 46.9688 218.375 46.9688C218.729 46.9688 219.039 46.901 219.305 46.7656C219.57 46.6302 219.792 46.4193 219.969 46.1328C220.151 45.8411 220.286 45.4688 220.375 45.0156C220.464 44.5573 220.508 44.0104 220.508 43.375Z" fill="black"/>
<path d="M228.57 36.5625V48H227.125V38.3672L224.211 39.4297V38.125L228.344 36.5625H228.57Z" fill="black"/>
<path d="M238.367 36.6094H238.492V37.8359H238.367C237.602 37.8359 236.961 37.9609 236.445 38.2109C235.93 38.4557 235.521 38.7865 235.219 39.2031C234.917 39.6146 234.698 40.0781 234.562 40.5938C234.432 41.1094 234.367 41.6328 234.367 42.1641V43.8359C234.367 44.3411 234.427 44.7891 234.547 45.1797C234.667 45.5651 234.831 45.8906 235.039 46.1562C235.247 46.4219 235.482 46.6224 235.742 46.7578C236.008 46.8932 236.284 46.9609 236.57 46.9609C236.904 46.9609 237.201 46.8984 237.461 46.7734C237.721 46.6432 237.94 46.4635 238.117 46.2344C238.299 46 238.438 45.724 238.531 45.4062C238.625 45.0885 238.672 44.7396 238.672 44.3594C238.672 44.0208 238.63 43.6953 238.547 43.3828C238.464 43.0651 238.336 42.7839 238.164 42.5391C237.992 42.2891 237.776 42.0938 237.516 41.9531C237.26 41.8073 236.956 41.7344 236.602 41.7344C236.201 41.7344 235.826 41.8333 235.477 42.0312C235.133 42.224 234.849 42.4792 234.625 42.7969C234.406 43.1094 234.281 43.4505 234.25 43.8203L233.484 43.8125C233.557 43.2292 233.693 42.7318 233.891 42.3203C234.094 41.9036 234.344 41.5651 234.641 41.3047C234.943 41.0391 235.279 40.8464 235.648 40.7266C236.023 40.6016 236.419 40.5391 236.836 40.5391C237.404 40.5391 237.893 40.6458 238.305 40.8594C238.716 41.0729 239.055 41.3594 239.32 41.7188C239.586 42.0729 239.781 42.474 239.906 42.9219C240.036 43.3646 240.102 43.8203 240.102 44.2891C240.102 44.8255 240.026 45.3281 239.875 45.7969C239.724 46.2656 239.497 46.6771 239.195 47.0312C238.898 47.3854 238.531 47.6615 238.094 47.8594C237.656 48.0573 237.148 48.1562 236.57 48.1562C235.956 48.1562 235.419 48.0312 234.961 47.7812C234.503 47.526 234.122 47.1875 233.82 46.7656C233.518 46.3438 233.292 45.875 233.141 45.3594C232.99 44.8438 232.914 44.3203 232.914 43.7891V43.1094C232.914 42.3073 232.995 41.5208 233.156 40.75C233.318 39.9792 233.596 39.2812 233.992 38.6562C234.393 38.0312 234.948 37.5339 235.656 37.1641C236.365 36.7943 237.268 36.6094 238.367 36.6094Z" fill="black"/>
</g>
</svg>
